<?xml version="1.0" standalone="no"?>
<!DOCTYPE svg PUBLIC "-//W3C//DTD SVG 1.1//EN" "http://www.w3.org/Graphics/SVG/1.1/DTD/svg11.dtd" >
<svg xmlns="http://www.w3.org/2000/svg">
<metadata></metadata>
<defs>
<font id="typoregular" horiz-adv-x="1069" >
<font-face units-per-em="2048" ascent="1638" descent="-410" />
<missing-glyph horiz-adv-x="509" />
<glyph horiz-adv-x="2048" />
<glyph horiz-adv-x="2048" />
<glyph unicode="&#xd;" horiz-adv-x="2048" />
<glyph unicode=" "  horiz-adv-x="509" />
<glyph unicode="&#x09;" horiz-adv-x="509" />
<glyph unicode="&#xa0;" horiz-adv-x="509" />
<glyph unicode="!" horiz-adv-x="647" d="M442 0h-176v172h176v-172zM440 1458l-22 -1048h-127l-21 1048h170z" />
<glyph unicode="&#x22;" horiz-adv-x="866" d="M342 1110h-162v348h162v-348zM686 1110h-162v348h162v-348z" />
<glyph unicode="#" horiz-adv-x="1337" d="M885 885h-326l-47 -289h326zM1233 885h-197l-47 -289h182v-131h-202l-74 -465h-152l74 465h-328l-71 -465h-152l74 465h-182v131h204l48 289h-189v135h207l70 440h153l-71 -440h325l70 440h149l-69 -440h178v-135z" />
<glyph unicode="$" horiz-adv-x="1220" d="M879 580q-17 14 -35.5 25t-31.5 17.5t-38.5 12.5t-35 7.5t-43 6.5t-42.5 6v-526q136 0 216.5 73t80.5 195q0 121 -71 183zM545 817v516q-127 -10 -196.5 -81t-69.5 -187q0 -111 51 -156q94 -77 215 -92zM659 -8v-225h-122v221q-259 0 -451 192l107 107q158 -158 352 -158 v543l-41 4q-75 6 -148 37q-80 39 -151 102q-80 71 -80 244q0 179 111 293q113 116 301 116v183h122v-183q110 0 199 -37.5t182 -119.5l-100 -101q-71 65 -135.5 94t-151.5 29v-530l64 -10q91 -13 160 -39q50 -19 141 -97q88 -73 88 -256q0 -181 -123 -295t-324 -114z" />
<glyph unicode="%" horiz-adv-x="1705" d="M569 985v207q0 178 -159 178q-160 0 -160 -178v-207q0 -176 160 -176q79 0 119 45t40 131zM1458 266v207q0 178 -160 178q-159 0 -159 -178v-207q0 -88 38 -133t121 -45q160 0 160 178zM410 707q-124 0 -200.5 75t-76.5 199v215q0 124 77.5 200.5t199.5 76.5t199 -76.5 t77 -200.5v-215q0 -122 -77 -198t-199 -76zM1257 1458l-684 -1458h-122l684 1458h122zM1298 -14q-124 0 -200 75t-76 201v215q0 124 77 200.5t199 76.5t199.5 -76.5t77.5 -200.5v-215q0 -124 -77.5 -200t-199.5 -76z" />
<glyph unicode="&#x26;" horiz-adv-x="1513" d="M961 266l-402 484q-124 -83 -190 -156q-60 -66 -60 -178q0 -129 85.5 -210t221.5 -81q98 0 177 31t168 110zM637 1337q-74 0 -121 -47.5t-47 -122.5q0 -48 27 -96t104 -143l78 53q68 46 99.5 87t31.5 95q0 73 -49.5 123.5t-122.5 50.5zM1374 0h-194l-131 160 q-85 -78 -188 -125t-243 -47q-210 0 -335 116t-125 308q0 114 59 209q61 94 256 227q-68 81 -119 162q-39 65 -39 155q0 129 91 217t231 88q139 0 227 -88q90 -90 90 -219q0 -82 -39.5 -142.5t-121.5 -117.5l-109 -74l373 -448q44 67 63 141t19 193h147q0 -148 -32 -255 t-103 -192z" />
<glyph unicode="'" horiz-adv-x="522" d="M342 1110h-162v348h162v-348z" />
<glyph unicode="(" horiz-adv-x="610" d="M479 -92l-100 -101q-1 1 -19 18.5t-23 23t-21 22.5t-24 27t-20.5 25t-21.5 29t-17 28q-45 80 -45 215v1069q0 74 8.5 117.5t34.5 93.5q8 15 18.5 30.5t23 31t22.5 27.5t24.5 27t22 22.5l21.5 21.5l16 16l100 -101q-12 -15 -45.5 -47.5t-50 -54t-32 -74t-15.5 -123.5 v-1044q0 -101 24 -150q5 -10 10 -19t9 -15.5t10 -15t9 -13t10.5 -13.5t10.5 -12t13 -13.5t13 -13.5l16.5 -16.5z" />
<glyph unicode=")" horiz-adv-x="610" d="M379 -16q-34 -63 -148 -177l-104 105q29 34 63 63q45 52 61.5 101t16.5 131v1044q0 102 -22 148t-35 59q-16 20 -84 88l104 105l14.5 -14.5l17 -17l16.5 -16.5t18 -19t17 -19t18 -21t15.5 -20.5t16 -22.5t13.5 -22q27 -48 35 -92t8 -123v-1069q0 -72 -8 -119.5t-33 -91.5 z" />
<glyph unicode="*" horiz-adv-x="970" d="M834 967l-58 -101l-239 146l8 -281h-119l8 281l-237 -146l-60 101l246 133l-246 135l60 98l237 -145l-8 280h119l-8 -280l239 145l58 -98l-246 -135z" />
<glyph unicode="+" d="M963 479h-359v-360h-137v360h-361v137h361v357h137v-357h359v-137z" />
<glyph unicode="," horiz-adv-x="540" d="M360 -133l-180 -162v475h180v-313z" />
<glyph unicode="-" horiz-adv-x="872" d="M717 483h-561v138h561v-138z" />
<glyph unicode="." horiz-adv-x="552" d="M373 0h-193v193h193v-193z" />
<glyph unicode="/" horiz-adv-x="727" d="M729 1610l-584 -1762h-145l584 1762h145z" />
<glyph unicode="0" d="M786 397v664q0 125 -67 201.5t-184 76.5t-184.5 -76t-67.5 -202v-664q0 -125 67.5 -201.5t184.5 -76.5t184 76t67 202zM535 -12q-174 0 -287 110t-113 291v680q0 179 113 289q112 112 287 112q173 0 286 -110t113 -291v-680q0 -176 -115 -291q-113 -110 -284 -110z" />
<glyph unicode="1" d="M676 0h-148v1294l-272 -239v168l272 235h148v-1458z" />
<glyph unicode="2" d="M944 0h-805v131l576 731q82 107 82 215q0 122 -66.5 192t-187.5 70q-115 0 -184.5 -67t-69.5 -197h-148q0 174 111 285q110 110 291 110t291 -107t110 -286q0 -85 -25 -147t-92 -148l-510 -651h627v-131z" />
<glyph unicode="3" d="M514 -14q-185 0 -307 98q-121 100 -121 287h147q0 -122 79.5 -188t201.5 -66q124 0 202.5 77t78.5 205q0 283 -287 283h-31v129h31q129 0 194.5 67.5t65.5 196.5q0 125 -70.5 195.5t-183.5 70.5q-112 0 -181.5 -65t-80.5 -178h-148q0 170 117 272q121 103 293 103 q175 0 289 -111q112 -109 112 -285q0 -235 -196 -323q223 -82 223 -357q0 -194 -121 -303q-120 -108 -307 -108z" />
<glyph unicode="4" d="M987 231h-178v-231h-145v231h-582v134l526 1093h158l-526 -1093h424v413h145v-413h178v-134z" />
<glyph unicode="5" d="M829 94q-108 -108 -290 -108q-184 0 -290 102t-106 256h148q14 -114 74 -170.5t174 -56.5q112 0 163 51q55 55 76 120.5t21 192.5q0 85 -11.5 147t-38.5 110.5t-76 73t-120 24.5q-93 0 -156 -38t-86 -106h-133v766h737v-131h-604v-463q88 101 262 101q160 0 234 -74 q70 -70 106 -162q33 -85 33 -248q0 -165 -31 -250q-26 -77 -86 -137z" />
<glyph unicode="6" d="M537 709q-117 0 -186.5 -80t-69.5 -215t69.5 -215t186.5 -80t187.5 80.5t70.5 214.5q0 131 -69 213t-189 82zM539 -12q-184 0 -295 114.5t-111 305.5q0 141 92 327l359 723h151l-325 -655q70 31 153 31q165 0 273 -117q106 -115 106 -297q0 -191 -111 -311 q-109 -121 -292 -121z" />
<glyph unicode="7" d="M965 1327l-506 -1327h-156l506 1327h-508v-229h-145v360h809v-131z" />
<glyph unicode="8" d="M535 688q-119 0 -201 -82t-82 -203q0 -119 80 -202q79 -82 203 -82q118 0 200 82t82 202t-80 203q-79 82 -202 82zM535 1339q-111 0 -182.5 -73.5t-71.5 -188.5q0 -117 69.5 -188.5t184.5 -71.5q112 0 182.5 72t70.5 188t-69 189t-184 73zM535 -12q-185 0 -308 114 t-123 299q0 229 220 355q-90 53 -140.5 135t-50.5 188q0 171 113 281t289 110q173 0 286 -110q115 -112 115 -281q0 -217 -188 -323q101 -57 159 -148.5t58 -206.5q0 -182 -123 -299q-120 -114 -307 -114z" />
<glyph unicode="9" d="M530 1339q-117 0 -186.5 -80t-69.5 -215q0 -132 68 -213t188 -81q117 0 187.5 80.5t70.5 213.5q0 135 -70 215t-188 80zM844 723l-359 -723h-153l327 655q-67 -30 -155 -30q-173 0 -275 114t-102 299q0 191 109 312q111 120 294 120q185 0 295.5 -114.5t110.5 -304.5 q0 -142 -92 -328z" />
<glyph unicode=":" horiz-adv-x="608" d="M428 0h-192v193h192v-193zM428 616h-192v193h192v-193z" />
<glyph unicode=";" horiz-adv-x="608" d="M420 -133l-180 -162v475h180v-313zM428 616h-192v193h192v-193z" />
<glyph unicode="&#x3c;" horiz-adv-x="2103" d="M1991 479h-1616l747 -745h-192l-817 817l817 817h192l-747 -745h1616v-144z" />
<glyph unicode="=" d="M963 309h-857v135h857v-135zM963 655h-857v138h857v-138z" />
<glyph unicode="&#x3e;" horiz-adv-x="2103" d="M1991 551l-817 -817h-193l748 745h-1616v144h1616l-748 745h193z" />
<glyph unicode="?" horiz-adv-x="1017" d="M641 0h-176v172h176v-172zM831 850l-167 -242q-17 -24 -27 -58.5t-10 -60.5v-79h-148v82q0 100 64 192l166 240q40 58 53.5 91.5t13.5 82.5q0 105 -66.5 173t-168.5 68q-104 0 -171 -70.5t-67 -172.5h-147q0 158 108 266q111 108 277 108q163 0 272 -106 q111 -108 111 -266q0 -67 -20.5 -120t-72.5 -128z" />
<glyph unicode="@" horiz-adv-x="1460" d="M922 862q-72 0 -121.5 -25.5t-76.5 -76.5t-38.5 -116.5t-11.5 -156.5t11.5 -156t38.5 -116t76.5 -76.5t121.5 -25.5q58 0 101 17t71 47.5t45 78.5t23.5 103t6.5 128q0 186 -54 280.5t-193 94.5zM1313 -2l-142 2v113q-52 -67 -115.5 -97t-158.5 -30q-85 0 -158.5 33 t-122.5 94t-68.5 143.5t-19.5 230.5q0 138 17 228q18 81 90 178q72 96 260 96q169 0 274 -129v160q0 79 -16 135q-13 46 -82 115q-65 65 -209 65h-266q-142 0 -205 -63q-65 -65 -82 -115q-18 -53 -18 -137v-690q0 -94 22 -146q19 -46 95 -102l-101 -100q-93 69 -127 139 q-33 67 -33 207v688q0 213 113.5 328.5t317.5 115.5h303q203 0 317.5 -116t114.5 -328v-1018z" />
<glyph unicode="A" horiz-adv-x="1251" d="M899 465l-270 770l-275 -770h545zM1227 0h-166l-117 330h-637l-117 -330h-165l536 1458h131z" />
<glyph unicode="B" horiz-adv-x="1368" d="M764 674h-397v-535h397q135 0 214 73t79 196t-78.5 194.5t-214.5 71.5zM748 1319h-381v-506h381q133 0 209.5 65t76.5 189q0 122 -77 187t-209 65zM778 0h-567v1458h549q194 0 312 -105t118 -284q0 -111 -58.5 -197t-156.5 -122q108 -39 172.5 -131.5t64.5 -215.5 q0 -193 -115.5 -298t-318.5 -105z" />
<glyph unicode="C" horiz-adv-x="1304" d="M666 -12q-221 0 -344 123q-126 126 -146 239q-20 111 -20 379q0 217 12 346q12 131 143 262q133 133 355 133q199 0 333.5 -115.5t171.5 -318.5h-159q-31 138 -121 216.5t-225 78.5q-155 0 -238 -86q-81 -81 -100 -180q-17 -107 -17 -336t17 -336q19 -98 100 -182 q84 -84 238 -84q135 0 227 78.5t123 216.5h155q-35 -202 -170.5 -318t-334.5 -116z" />
<glyph unicode="D" horiz-adv-x="1378" d="M971 1212q-104 107 -287 107h-317v-1180h317q95 0 163 25t128 86q59 61 75.5 167.5t16.5 327.5v68q0 184 -23 268q-22 80 -73 131zM1079 135q-135 -135 -368 -135h-500v1458h500q231 0 350 -119q118 -118 139 -243q23 -138 23 -351v-77q0 -204 -28.5 -325t-115.5 -208z " />
<glyph unicode="E" horiz-adv-x="1228" d="M1116 0h-905v1458h905v-139h-749v-514h639v-139h-639v-527h749v-139z" />
<glyph unicode="F" horiz-adv-x="1187" d="M1116 1319h-749v-537h639v-139h-639v-643h-156v1458h905v-139z" />
<glyph unicode="G" horiz-adv-x="1331" d="M1055 156q-155 -168 -389 -168q-221 0 -344 123q-126 126 -146 239q-20 111 -20 379q0 217 12 346q12 131 143 262q133 133 355 133q209 0 342 -118q134 -119 168 -318h-156q-31 140 -124.5 218.5t-229.5 78.5q-154 0 -236 -88q-84 -87 -102 -180q-17 -104 -17 -334 q0 -229 17 -336q19 -98 100 -182q84 -84 238 -84q174 0 266 111q92 115 92 278v111h-358v137h514v-232q0 -128 -29 -216t-96 -160z" />
<glyph unicode="H" horiz-adv-x="1425" d="M1214 0h-155v666h-692v-666h-156v1458h156v-653h692v653h155v-1458z" />
<glyph unicode="I" horiz-adv-x="577" d="M367 0h-156v1458h156v-1458z" />
<glyph unicode="J" horiz-adv-x="1026" d="M381 -12q-203 0 -334 131l105 104q51 -51 101 -73.5t128 -22.5q143 0 221 86.5t78 249.5v995h156v-1016q0 -204 -127 -331q-126 -123 -328 -123z" />
<glyph unicode="K" horiz-adv-x="1331" d="M1303 0h-185l-444 776l-307 -368v-408h-156v1458h156v-837l680 837h190l-459 -563z" />
<glyph unicode="L" horiz-adv-x="1173" d="M1112 0h-901v1458h156v-1319h745v-139z" />
<glyph unicode="M" horiz-adv-x="1671" d="M1460 0h-155v1108l-400 -879h-133l-405 879v-1108h-156v1458h156l475 -1034l463 1034h155v-1458z" />
<glyph unicode="N" horiz-adv-x="1499" d="M1288 0h-147l-774 1169v-1169h-156v1458h147l775 -1165v1165h155v-1458z" />
<glyph unicode="O" horiz-adv-x="1331" d="M918 1227q-101 104 -252 104q-154 0 -236 -88q-84 -87 -102 -180q-17 -104 -17 -334q0 -229 17 -336q18 -93 102 -180q83 -86 236 -86q152 0 235 86q86 92 100 180q19 100 19 336q0 234 -19 334q-15 96 -83 164zM1038 139q-151 -151 -372 -151t-344 123 q-126 126 -146 239q-20 111 -20 379q0 217 12 346q12 131 143 262q133 133 355 133t344 -122t143 -240q23 -128 23 -379q0 -205 -13 -348q-12 -129 -125 -242z" />
<glyph unicode="P" horiz-adv-x="1290" d="M739 1319h-372v-580h372q145 0 227.5 75.5t82.5 215.5q0 139 -83 214t-227 75zM754 600h-387v-600h-156v1458h543q199 0 325 -117q125 -116 125 -311q0 -194 -125 -313q-123 -117 -325 -117z" />
<glyph unicode="Q" horiz-adv-x="1329" d="M918 1227q-101 104 -252 104q-154 0 -236 -88q-84 -87 -102 -180q-17 -104 -17 -334q0 -229 17 -336q18 -93 102 -180q83 -86 236 -86q115 0 206 70l-184 184l94 94l179 -178q38 59 47 152q12 91 12 280q0 234 -19 334q-15 96 -83 164zM1235 23l-94 -95l-162 162 q-132 -102 -313 -102q-221 0 -344 123q-126 126 -146 239q-20 111 -20 379q0 217 12 346q12 131 143 262q133 133 355 133t344 -122t143 -240q23 -128 23 -379q0 -203 -9 -323q-9 -118 -92 -224z" />
<glyph unicode="R" horiz-adv-x="1343" d="M756 1319h-389v-535h389q136 0 213.5 69t77.5 198q0 127 -79 197.5t-212 70.5zM1231 0h-182l-332 647h-350v-647h-156v1458h559q192 0 311 -110q121 -109 121 -295q0 -154 -84.5 -257t-232.5 -134z" />
<glyph unicode="S" horiz-adv-x="1204" d="M586 -12q-168 0 -281 43t-219 149l107 107q87 -87 178 -123.5t219 -36.5q160 0 252 71.5t92 198.5q0 121 -51 166q-50 45 -92 60q-36 13 -117 26l-170 27q-379 61 -379 383q0 187 126.5 299t340.5 112q139 0 238 -36.5t196 -122.5l-100 -101q-137 125 -340 125 q-145 0 -226 -72t-81 -198q0 -111 49 -154q89 -74 213 -94l159 -24q101 -15 160 -39q53 -19 144 -97q86 -74 86 -256q0 -190 -136 -301.5t-368 -111.5z" />
<glyph unicode="T" horiz-adv-x="1122" d="M1061 1319h-422v-1319h-156v1319h-422v139h1000v-139z" />
<glyph unicode="U" horiz-adv-x="1398" d="M698 -12q-223 0 -366 137q-142 139 -142 356v977h156v-964q0 -166 96 -266.5t256 -100.5q159 0 257 101t98 266v964h155v-977q0 -219 -143 -356t-367 -137z" />
<glyph unicode="V" horiz-adv-x="1118" d="M1102 1458l-479 -1458h-127l-480 1458h164l379 -1179l379 1179h164z" />
<glyph unicode="W" horiz-adv-x="1748" d="M1716 1458l-373 -1458h-145l-324 1167l-323 -1167h-145l-373 1458h166l284 -1175l322 1175h139l322 -1175l284 1175h166z" />
<glyph unicode="X" horiz-adv-x="1128" d="M1098 0h-180l-355 612l-356 -612h-176l446 748l-418 710h181l323 -575l324 575h180l-420 -710z" />
<glyph unicode="Y" horiz-adv-x="1052" d="M1036 1458l-430 -856v-602h-155v602l-435 856h168l344 -698l340 698h168z" />
<glyph unicode="Z" horiz-adv-x="1138" d="M1022 0h-905v147l729 1172h-701v139h877v-131l-735 -1188h735v-139z" />
<glyph unicode="[" horiz-adv-x="641" d="M551 -152h-363v1762h363v-131h-215v-1499h215v-132z" />
<glyph unicode="\" horiz-adv-x="727" d="M727 -152h-145l-582 1756h145z" />
<glyph unicode="]" horiz-adv-x="641" d="M453 -152h-363v127h221v1508h-221v127h363v-1762z" />
<glyph unicode="^" horiz-adv-x="1099" d="M952 846h-151l-250 467l-252 -467h-152l336 624h135z" />
<glyph unicode="_" horiz-adv-x="1099" d="M1100 -338h-1100v105h1100v-105z" />
<glyph unicode="`" horiz-adv-x="1024" d="M612 1217h-135l-221 313h176z" />
<glyph unicode="a" horiz-adv-x="1077" d="M756 356v109h-283q-225 0 -225 -178q0 -172 231 -172q77 0 129 12q54 12 99 57q49 46 49 172zM903 0h-147v96q-60 -60 -125.5 -84t-165.5 -24q-111 0 -172 20q-64 21 -127 84q-62 65 -62 193q0 136 91.5 213t257.5 77h303v97q0 114 -61.5 167.5t-196.5 53.5 q-99 0 -153 -24.5t-101 -90.5l-101 92q65 85 145 117.5t212 32.5q403 0 403 -336v-684z" />
<glyph unicode="b" horiz-adv-x="1116" d="M586 889q-150 0 -203 -105q-51 -102 -51 -280q0 -194 55 -289.5t199 -95.5q146 0 198 104q54 108 54 281q0 181 -52 282q-53 103 -200 103zM862 76q-39 -39 -106.5 -63.5t-139.5 -24.5q-93 0 -159 30t-125 103v-121h-148v1458h148v-567q55 70 124 99.5t160 29.5 q158 0 238 -80q75 -75 103 -178.5t28 -257.5q0 -151 -27.5 -255.5t-95.5 -172.5z" />
<glyph unicode="c" horiz-adv-x="1003" d="M575 -12q-194 0 -321 133q-125 134 -125 383q0 245 121.5 380.5t324.5 135.5q109 0 181 -32t151 -118l-100 -94q-57 63 -108.5 88t-123.5 25q-150 0 -224.5 -101t-74.5 -284q0 -96 15 -158q17 -68 71 -145q58 -82 213 -82q74 0 123 24t109 90l100 -96 q-77 -84 -151 -116.5t-181 -32.5z" />
<glyph unicode="d" horiz-adv-x="1116" d="M532 889q-150 0 -202 -105q-51 -102 -51 -280q0 -194 54.5 -289.5t198.5 -95.5q147 0 199 104q53 106 53 281q0 183 -51 282q-53 103 -201 103zM932 0h-146v121q-55 -73 -123 -103t-163 -30q-158 0 -238 80q-75 75 -103 178.5t-28 257.5q0 304 107 411q105 105 262 105 q96 0 161 -28t123 -101v567h148v-1458z" />
<glyph unicode="e" horiz-adv-x="1085" d="M778 743q-29 69 -92.5 110.5t-142.5 41.5q-77 0 -140.5 -39.5t-89.5 -97.5q-22 -52 -29.5 -90.5t-7.5 -92.5h533q0 61 -5.5 89.5t-25.5 78.5zM956 465h-680q0 -166 77.5 -257t219.5 -91q86 0 143.5 25t121.5 89l100 -88q-84 -84 -165.5 -119.5t-203.5 -35.5 q-211 0 -325.5 130.5t-114.5 385.5q0 244 109.5 380t304.5 136q194 0 303.5 -130t109.5 -358v-67z" />
<glyph unicode="f" horiz-adv-x="643" d="M580 889h-215v-889h-148v889h-129v112h129v191q0 120 68 195t188 75h107v-127h-80q-135 0 -135 -147v-187h215v-112z" />
<glyph unicode="g" horiz-adv-x="1112" d="M530 889q-148 0 -200 -105q-51 -99 -51 -272q0 -175 51 -274q53 -103 200 -103q150 0 199 101q51 99 51 276q0 175 -51 274q-50 103 -199 103zM508 -463q-110 0 -186 31q-75 29 -156 104l96 95q62 -56 113.5 -78.5t128.5 -22.5q135 0 205.5 84t70.5 225v158 q-55 -71 -123 -101t-159 -30q-151 0 -258 104q-109 109 -109 406q0 296 107 403q105 105 262 105q95 0 159 -29t123 -102v119h146v-1039q0 -192 -113 -311q-115 -121 -307 -121z" />
<glyph unicode="h" horiz-adv-x="1150" d="M977 0h-148v623q0 129 -64 197.5t-181 68.5q-118 0 -185 -69.5t-67 -196.5v-623h-148v1458h148v-561q108 123 282 123q170 0 266.5 -100t96.5 -273v-647z" />
<glyph unicode="i" horiz-adv-x="518" d="M332 0h-148v1008h148v-1008zM342 1294h-166v166h166v-166z" />
<glyph unicode="j" horiz-adv-x="518" d="M76 -453h-107v129h80q73 0 104 34.5t31 113.5v1177h148v-1183q0 -125 -66 -198t-190 -73zM342 1294h-166v166h166v-166z" />
<glyph unicode="k" horiz-adv-x="1097" d="M1030 0h-182l-320 516l-196 -225v-291h-148v1458h148v-975l454 525h185l-342 -385z" />
<glyph unicode="l" horiz-adv-x="608" d="M543 0h-107q-125 0 -190.5 71t-65.5 197v1190h148v-1184q0 -77 31 -112t104 -35h80v-127z" />
<glyph unicode="m" horiz-adv-x="1800" d="M1626 0h-147v621q0 130 -65 199t-183 69q-114 0 -183 -68t-69 -184v-637h-148v621q0 130 -64.5 199t-182.5 69t-185 -70t-67 -198v-621h-148v1008h148v-111q108 123 284 123q216 0 310 -168q119 168 331 168q79 0 146 -25q70 -25 145 -100q78 -75 78 -250v-645z" />
<glyph unicode="n" horiz-adv-x="1150" d="M977 0h-148v621q0 130 -64.5 199t-182.5 69t-184 -69.5t-66 -198.5v-621h-148v1008h148v-111q108 123 282 123q166 0 264.5 -99.5t98.5 -275.5v-645z" />
<glyph unicode="o" horiz-adv-x="1085" d="M727 815q-74 74 -184 74q-108 0 -170 -62q-57 -57 -75.5 -132.5t-18.5 -190.5q0 -116 14 -187q19 -82 84 -140t166 -58q111 0 172 61q57 57 74.5 129t17.5 195q0 116 -17 190.5t-63 120.5zM831 102q-114 -114 -288 -114t-297 123q-61 63 -85.5 154.5t-29.5 238.5 q-4 129 28 230t89.5 162.5t132.5 93t162 30.5q91 0 162 -29.5t135 -95.5q61 -61 87.5 -155.5t26.5 -235.5t-27 -236.5t-96 -165.5z" />
<glyph unicode="p" horiz-adv-x="1116" d="M586 889q-150 0 -203 -105q-51 -102 -51 -280q0 -194 55 -289.5t199 -95.5q146 0 198 104q54 108 54 281q0 181 -52 282q-53 103 -200 103zM862 76q-39 -39 -106.5 -63.5t-139.5 -24.5q-98 0 -161.5 28t-122.5 103v-570h-148v1459h148v-119q55 71 122.5 101t161.5 30 q158 0 238 -80q75 -75 103 -178.5t28 -257.5q0 -151 -27.5 -255.5t-95.5 -172.5z" />
<glyph unicode="q" horiz-adv-x="1116" d="M532 889q-150 0 -202 -105q-51 -102 -51 -280q0 -194 54.5 -289.5t198.5 -95.5q147 0 199 104q53 106 53 281q0 183 -51 282q-53 103 -201 103zM932 -451h-148v570q-55 -71 -122.5 -101t-161.5 -30q-158 0 -238 80q-75 75 -103 178.5t-28 257.5q0 304 107 411 q105 105 262 105q96 0 161.5 -29t124.5 -102v119h146v-1459z" />
<glyph unicode="r" horiz-adv-x="862" d="M856 926l-108 -111q-41 41 -79.5 57.5t-95.5 16.5q-108 0 -174.5 -76.5t-66.5 -194.5v-618h-148v1008h148v-123q41 62 117.5 98.5t164.5 36.5q81 0 134.5 -20t107.5 -74z" />
<glyph unicode="s" horiz-adv-x="1015" d="M502 -12q-133 0 -233.5 34t-180.5 111l98 98q108 -116 314 -116q268 0 268 178q0 132 -168 147l-166 15q-301 25 -301 270q0 135 102 215t269 80q229 0 362 -109l-96 -96q-106 80 -268 80q-110 0 -168 -43t-58 -123q0 -147 177 -147l161 -15q148 -12 222.5 -76.5 t74.5 -195.5q0 -145 -109.5 -226t-299.5 -81z" />
<glyph unicode="t" horiz-adv-x="679" d="M571 0h-104q-122 0 -190 74.5t-68 195.5v619h-127v112h127v316h147v-316h215v-112h-215v-615q0 -147 138 -147h77v-127z" />
<glyph unicode="u" horiz-adv-x="1150" d="M967 0h-146v113q-107 -125 -284 -125q-168 0 -265.5 98.5t-97.5 278.5v643h148v-621q0 -130 63.5 -199t181.5 -69t185 70t67 198v621h148v-1008z" />
<glyph unicode="v" horiz-adv-x="915" d="M893 1008l-371 -1008h-131l-368 1008h159l275 -809l276 809h160z" />
<glyph unicode="w" horiz-adv-x="1482" d="M1460 1008l-317 -1008h-137l-265 782l-262 -782h-137l-319 1008h159l232 -809l264 809h127l266 -809l229 809h160z" />
<glyph unicode="x" horiz-adv-x="978" d="M911 0h-178l-241 391l-246 -391h-178l342 514l-328 494h178l232 -373l227 373h178l-328 -494z" />
<glyph unicode="y" horiz-adv-x="915" d="M893 1008l-459 -1252q-38 -107 -105 -147.5t-163 -40.5h-64v131h45q74 0 106.5 25t59.5 100l72 196l-362 988h159l277 -809l274 809h160z" />
<glyph unicode="z" horiz-adv-x="940" d="M834 0h-732v127l562 750h-531v131h701v-125l-564 -752h564v-131z" />
<glyph unicode="{" horiz-adv-x="724" d="M625 -152h-76q-145 0 -206.5 61.5t-61.5 203.5v391q0 82 -35 121t-94 39h-54v131h54q32 0 51 8q22 10 35.5 20t28 44t14.5 87v392q0 84 12 124q13 43 61 91q49 49 195 49h76v-131h-47q-94 0 -123 -29q-27 -27 -27 -131v-385q0 -79 -31.5 -126t-97.5 -79q69 -32 99 -77.5 t30 -127.5v-385q0 -106 27 -133q26 -26 123 -26h47v-132z" />
<glyph unicode="|" horiz-adv-x="667" d="M408 -152h-148v1762h148v-1762z" />
<glyph unicode="}" horiz-adv-x="724" d="M625 664h-52q-25 0 -51 -11q-24 -11 -51 -37q-27 -27 -27 -112v-391q0 -84 -12 -125t-61 -90q-50 -50 -195 -50h-78v132h49q59 0 80 6q22 3 45 26q25 25 25 127v385q0 79 31.5 126t97.5 79q-69 32 -99 77.5t-30 127.5v385q0 102 -23 125t-47 29t-80 6h-49v131h78 q145 0 206.5 -61t61.5 -203v-392q0 -82 35 -120.5t94 -38.5h52v-131z" />
<glyph unicode="~" horiz-adv-x="1103" d="M739 430q-41 0 -75 7.5t-57 16.5t-79 35q-10 4 -30 13t-26.5 12t-21 9t-20 8t-16.5 5t-17.5 4t-15.5 2t-19 1q-45 0 -79 -17q-36 -18 -93 -75l-90 92q82 82 140 112q53 27 125 27q45 0 87 -13.5t119 -47.5q72 -33 102 -42.5t66 -9.5q50 0 80 15q28 14 92 78l93 -93 q-82 -82 -140 -112q-52 -27 -125 -27z" />
<glyph unicode="&#xa1;" horiz-adv-x="647" d="M377 -451h-170l20 1049h127zM379 836h-176v172h176v-172z" />
<glyph unicode="&#xa2;" horiz-adv-x="1019" d="M508 373v753q-100 -18 -152 -88q-48 -65 -64 -127t-16 -161q0 -169 63 -263t169 -114zM621 236v-236h-121v240q-173 25 -272 158.5t-99 351.5q0 215 99 350t272 160v198h121v-194q86 0 154 -35.5t143 -116.5l-101 -94q-100 112 -205 112v-761q105 0 205 112l101 -94 q-139 -151 -297 -151z" />
<glyph unicode="&#xa3;" horiz-adv-x="1122" d="M1016 0h-791v676h-129v110h129v230q0 208 127 332q125 122 330 122q203 0 334 -131l-107 -104q-51 51 -100.5 73.5t-126.5 22.5q-143 0 -221 -86.5t-78 -249.5v-209h299v-110h-299v-537h633v-139z" />
<glyph unicode="&#xa4;" horiz-adv-x="1351" d="M676 872q-130 0 -225 -92t-95 -225q0 -134 93 -227q92 -92 227 -92q133 0 225 92t92 227q0 133 -92 225t-225 92zM1192 133l-94 -94l-154 151q-120 -90 -268 -90q-149 0 -270 90l-152 -151l-94 94l151 152q-90 120 -90 270q0 149 90 270l-151 150l94 94l152 -149 q116 88 270 88q152 0 268 -88l154 149l94 -94l-152 -150q90 -120 90 -270q0 -149 -90 -270z" />
<glyph unicode="&#xa5;" horiz-adv-x="1052" d="M1036 1458l-321 -637h205v-110h-261l-53 -109v-106h314v-113h-314v-383h-157v383h-316v113h316v106l-54 109h-262v110h205l-322 637h168l344 -698l342 698h166z" />
<glyph unicode="&#xa6;" horiz-adv-x="686" d="M408 -152h-148v717h148v-717zM408 893h-148v717h148v-717z" />
<glyph unicode="&#xa7;" horiz-adv-x="1140" d="M748 707q-73 73 -177 73q-108 0 -175.5 -73t-67.5 -189q0 -67 16 -108q13 -37 68 -99q52 -55 159 -55q108 0 158 53q48 54 66 100t18 109q0 68 -14 110t-51 79zM750 184q93 -33 145.5 -109.5t52.5 -185.5q0 -159 -108 -254q-107 -98 -269 -98q-161 0 -276 86 q-111 85 -111 244h150q18 -195 237 -195q107 0 167.5 56.5t60.5 158.5q0 72 -48.5 128t-132.5 81l-159 45q-135 38 -208 136t-73 239q0 114 59 202t156 134q-97 44 -143.5 110.5t-46.5 172.5q0 147 102 241q101 94 266 94t269 -88q104 -85 104 -233h-147q0 94 -60 142 t-166 48q-105 0 -163 -52t-58 -150q0 -148 172 -197l160 -45q133 -38 207 -136.5t74 -238.5q0 -113 -59 -201.5t-154 -134.5z" />
<glyph unicode="&#xa8;" horiz-adv-x="1024" d="M369 1233h-148v182h148v-182zM803 1233h-148v182h148v-182z" />
<glyph unicode="&#xa9;" horiz-adv-x="1804" d="M911 313q-171 0 -267.5 113.5t-96.5 302.5t96.5 303.5t267.5 114.5q80 0 140.5 -25.5t128.5 -83.5l-74 -73q-88 79 -195 79q-126 0 -187.5 -83.5t-61.5 -231.5q0 -313 249 -313q58 0 101.5 17t93.5 61l74 -74q-119 -107 -269 -107zM901 1360q-260 0 -440 -186 q-180 -183 -180 -445q0 -260 180 -446q182 -185 440 -185t440 185q183 186 183 446q0 256 -183 445q-180 186 -440 186zM901 -12q-307 0 -524 217t-217 524t217 524t524 217t524 -217t217 -524t-217 -524t-524 -217z" />
<glyph unicode="&#xaa;" horiz-adv-x="919" d="M627 938v82h-219q-172 0 -172 -137q0 -133 176 -133q71 0 102 8q113 23 113 180zM748 653h-119v74q-87 -84 -228 -84q-82 0 -135 16q-60 21 -105.5 76.5t-45.5 143.5q0 107 72 170t204 63h236v74q0 92 -45.5 132t-153.5 40q-78 0 -121 -19.5t-80 -70.5l-84 75 q54 67 119 95t168 28q318 0 318 -270v-543z" />
<glyph unicode="&#xab;" horiz-adv-x="1134" d="M512 119l-430 430l430 430v-184l-246 -246l246 -248v-182zM975 119l-430 430l430 430v-184l-248 -246l248 -248v-182z" />
<glyph unicode="&#xac;" d="M965 211h-138v281h-723v137h861v-418z" />
<glyph unicode="&#xad;" horiz-adv-x="872" d="M717 483h-561v138h561v-138z" />
<glyph unicode="&#xae;" horiz-adv-x="1804" d="M924 1036h-152v-284h152q68 0 110.5 39t42.5 102q0 62 -43 102.5t-110 40.5zM1212 324h-131l-186 331h-123v-331h-113v813h277q105 0 180 -72q76 -70 76 -172q0 -82 -47 -139.5t-127 -83.5zM901 1362q-262 0 -442 -186q-180 -183 -180 -447q0 -258 182 -446 q181 -187 440 -187q258 0 440 185q185 188 185 448q0 259 -185 447q-183 186 -440 186zM901 -12q-307 0 -524 217t-217 524t217 524t524 217t524 -217t217 -524t-217 -524t-524 -217z" />
<glyph unicode="&#xb0;" horiz-adv-x="948" d="M473 1358q-92 0 -151.5 -61.5t-59.5 -155.5q0 -91 61.5 -154t151.5 -63q92 0 151.5 61.5t59.5 155.5q0 91 -61.5 154t-151.5 63zM475 805q-140 0 -239 96q-99 95 -99 240q0 138 99 237t239 99q139 0 238 -99q98 -98 98 -237q0 -140 -98 -238t-238 -98z" />
<glyph unicode="&#xb1;" d="M963 0h-857v137h857v-137zM963 592h-359v-363h-137v363h-361v137h361v358h137v-358h359v-137z" />
<glyph unicode="&#xb2;" horiz-adv-x="700" d="M602 584h-504v106l338 414q47 59 47 119q0 62 -36 99.5t-97 37.5q-60 0 -96.5 -35t-36.5 -102h-119q0 109 69.5 176t182.5 67q111 0 181.5 -67t70.5 -176q0 -89 -80 -189l-282 -344h362v-106z" />
<glyph unicode="&#xb3;" horiz-adv-x="729" d="M367 573q-120 0 -194.5 63t-74.5 181h119q0 -66 42 -101.5t108 -35.5q64 0 105.5 40.5t41.5 108.5q0 150 -154 150h-18v102h18q68 0 104 36.5t36 103.5q0 66 -37 102.5t-98 36.5t-99.5 -35t-38.5 -94h-116q0 104 73 169.5t181 65.5q110 0 180.5 -67.5t70.5 -175.5 q0 -137 -110 -189q125 -53 125 -205q0 -119 -74 -187.5t-190 -68.5z" />
<glyph unicode="&#xb4;" horiz-adv-x="1024" d="M768 1530l-221 -313h-135l180 313h176z" />
<glyph unicode="&#xb5;" horiz-adv-x="1148" d="M965 0h-148v113q-107 -125 -282 -125q-137 0 -218 75v-514h-147v1459h147v-621q0 -130 65 -199t183 -69t185 70t67 198v621h148v-1008z" />
<glyph unicode="&#xb6;" horiz-adv-x="1234" d="M1024 -451h-147v1770h-240v-1770h-148v1119q-177 0 -290 116q-113 119 -113 277q0 169 119 282q121 115 325 115h494v-1909z" />
<glyph unicode="&#xb8;" horiz-adv-x="1024" d="M641 -137l-121 -305h-162l146 305h137z" />
<glyph unicode="&#xb9;" horiz-adv-x="534" d="M375 584h-117v743l-170 -149v135l170 145h117v-874z" />
<glyph unicode="&#xba;" horiz-adv-x="931" d="M608 1298q-61 61 -143 58q-64 -1 -107 -26.5t-63.5 -70.5t-28 -93t-6.5 -111q0 -97 10 -146q11 -62 63 -108t132 -47q42 0 78 15.5t67 48.5t48 94t14 143q-3 95 -16 151.5t-48 91.5zM694 735q-90 -90 -229 -90q-143 -2 -235.5 102.5t-92.5 307.5q0 202 92 306.5 t236 104.5q68 0 128 -25t106.5 -74t72 -129t21.5 -183q-3 -114 -24.5 -190.5t-74.5 -129.5z" />
<glyph unicode="&#xbb;" horiz-adv-x="1134" d="M590 549l-430 -430v182l248 248l-248 246v184zM1053 549l-430 -430v182l245 248l-245 246v184z" />
<glyph unicode="&#xbc;" horiz-adv-x="1591" d="M375 584h-117v743l-170 -149v135l170 145h117v-874zM1159 1458l-682 -1458h-123l682 1458h123zM1509 131h-96v-131h-115v131h-352v109l309 634h127l-307 -634h223v215h115v-215h96v-109z" />
<glyph unicode="&#xbd;" horiz-adv-x="1617" d="M375 584h-117v743l-170 -149v135l170 145h117v-874zM1135 1458l-682 -1458h-123l682 1458h123zM1520 0h-504v106l338 414q47 59 47 119q0 62 -36 99.5t-97 37.5q-60 0 -96.5 -35t-36.5 -102h-119q0 109 70 176.5t182 67.5q111 0 181.5 -67.5t70.5 -176.5q0 -88 -80 -188 l-281 -345h361v-106z" />
<glyph unicode="&#xbe;" horiz-adv-x="1683" d="M367 573q-120 0 -194.5 63t-74.5 181h119q0 -66 42 -101.5t108 -35.5q64 0 105.5 40.5t41.5 108.5q0 150 -154 150h-18v102h18q68 0 104 36.5t36 103.5q0 66 -37 102.5t-98 36.5t-99.5 -35t-38.5 -94h-116q0 104 73 169.5t181 65.5q110 0 180.5 -67.5t70.5 -175.5 q0 -137 -110 -189q125 -53 125 -205q0 -119 -74 -187.5t-190 -68.5zM1268 1458l-684 -1458h-123l684 1458h123zM1602 131h-97v-131h-114v131h-353v109l310 634h127l-310 -634h226v215h114v-215h97v-109z" />
<glyph unicode="&#xbf;" horiz-adv-x="1017" d="M479 -463q-161 0 -274 107q-111 105 -111 268q0 63 22 118t72 128l168 241q17 24 27 58.5t10 60.5v82h148v-84q0 -56 -15 -99t-51 -93l-166 -238q-40 -56 -53.5 -90.5t-13.5 -83.5q0 -103 67.5 -172.5t169.5 -69.5q104 0 170 70t66 172h147q0 -158 -108 -266 q-109 -109 -275 -109zM553 836h-174v172h174v-172z" />
<glyph unicode="&#xc0;" horiz-adv-x="1251" d="M899 465l-270 770l-275 -770h545zM1227 0h-166l-117 330h-637l-117 -330h-165l536 1458h131zM718 1600h-135l-221 313h176z" />
<glyph unicode="&#xc1;" horiz-adv-x="1251" d="M899 465l-270 770l-275 -770h545zM1227 0h-166l-117 330h-637l-117 -330h-165l536 1458h131zM874 1913l-221 -314h-135l180 314h176z" />
<glyph unicode="&#xc2;" horiz-adv-x="1251" d="M899 465l-270 770l-275 -770h545zM1227 0h-166l-117 330h-637l-117 -330h-165l536 1458h131zM944 1600h-142l-184 213l-184 -213h-142l256 313h140z" />
<glyph unicode="&#xc3;" horiz-adv-x="1251" d="M899 465l-270 770l-275 -770h545zM1227 0h-166l-117 330h-637l-117 -330h-165l536 1458h131zM745 1628q-45 0 -73 10t-78 39q-45 27 -62.5 34t-46.5 7q-33 0 -55.5 -11.5t-64.5 -53.5l-76 73q59 59 104 82t90 23q40 0 70 -10q25 -8 84 -45q59 -35 106 -35q29 0 55.5 13 t65.5 52l76 -73q-105 -105 -195 -105z" />
<glyph unicode="&#xc4;" horiz-adv-x="1251" d="M899 465l-270 770l-275 -770h545zM1227 0h-166l-117 330h-637l-117 -330h-165l536 1458h131zM475 1616h-148v182h148v-182zM909 1616h-148v182h148v-182z" />
<glyph unicode="&#xc5;" horiz-adv-x="1251" d="M899 465l-270 770l-275 -770h545zM1227 0h-166l-117 330h-637l-117 -330h-165l536 1458h131zM618 1915q-61 0 -101 -39t-40 -100q0 -60 40.5 -101t100.5 -41t101 41t41 101q0 57 -41 98t-101 41zM618 1532q-97 0 -169 72t-72 172q0 101 69 170q71 71 172 71t170 -69 q72 -72 72 -172q0 -103 -69 -172q-72 -72 -173 -72z" />
<glyph unicode="&#xc6;" horiz-adv-x="1888" d="M872 481v838l-438 -838h438zM1776 0h-904v346h-505l-181 -346h-170l770 1458h990v-139h-750v-518h639v-139h-639v-523h750v-139z" />
<glyph unicode="&#xc7;" horiz-adv-x="1304" d="M666 -12q-221 0 -344 123q-126 126 -146 239q-20 111 -20 379q0 217 12 346q12 131 143 262q133 133 355 133q199 0 333.5 -115.5t171.5 -318.5h-159q-31 138 -121 216.5t-225 78.5q-155 0 -238 -86q-81 -81 -100 -180q-17 -107 -17 -336t17 -336q19 -98 100 -182 q84 -84 238 -84q135 0 227 78.5t123 216.5h155q-35 -202 -170.5 -318t-334.5 -116zM758 -137l-121 -305h-162l146 305h137z" />
<glyph unicode="&#xc8;" horiz-adv-x="1228" d="M1116 0h-905v1458h905v-139h-749v-514h639v-139h-639v-527h749v-139zM741 1600h-135l-221 313h176z" />
<glyph unicode="&#xc9;" horiz-adv-x="1228" d="M1116 0h-905v1458h905v-139h-749v-514h639v-139h-639v-527h749v-139zM897 1913l-221 -314h-135l180 314h176z" />
<glyph unicode="&#xca;" horiz-adv-x="1228" d="M1116 0h-905v1458h905v-139h-749v-514h639v-139h-639v-527h749v-139zM967 1600h-142l-184 213l-184 -213h-142l256 313h140z" />
<glyph unicode="&#xcb;" horiz-adv-x="1228" d="M1116 0h-905v1458h905v-139h-749v-514h639v-139h-639v-527h749v-139zM498 1616h-148v182h148v-182zM932 1616h-148v182h148v-182z" />
<glyph unicode="&#xcc;" horiz-adv-x="577" d="M367 0h-156v1458h156v-1458zM567 1600h-135l-221 313h176z" />
<glyph unicode="&#xcd;" horiz-adv-x="577" d="M367 0h-156v1458h156v-1458zM567 1913l-221 -314h-135l180 314h176z" />
<glyph unicode="&#xce;" horiz-adv-x="577" d="M367 0h-156v1458h156v-1458zM863 1600h-142l-184 213l-184 -213h-142l256 313h140z" />
<glyph unicode="&#xcf;" horiz-adv-x="577" d="M367 0h-156v1458h156v-1458zM358 1616h-147v182h147v-182zM793 1616h-148v182h148v-182z" />
<glyph unicode="&#xd0;" horiz-adv-x="1406" d="M1022 1174q-57 77 -130.5 112t-178.5 35h-316v-524h330v-121h-330v-539h316q218 0 288 107q75 111 84 184q11 93 11 293q0 177 -6 272q-6 98 -68 181zM1161 215q-155 -215 -432 -215h-489v676h-160v121h160v661h501q278 0 379 -155q102 -155 117 -246q14 -83 14 -328 q0 -262 -14 -342q-15 -88 -76 -172z" />
<glyph unicode="&#xd1;" horiz-adv-x="1499" d="M1288 0h-147l-774 1169v-1169h-156v1458h147l775 -1165v1165h155v-1458zM877 1628q-46 0 -74.5 10.5t-77.5 38.5q-45 27 -62 34t-46 7q-33 0 -56 -11.5t-65 -53.5l-76 73q59 59 104.5 82t90.5 23q39 0 69 -10q25 -8 84 -45q59 -35 107 -35q29 0 55.5 13t65.5 52l76 -73 q-105 -105 -195 -105z" />
<glyph unicode="&#xd2;" horiz-adv-x="1331" d="M918 1227q-101 104 -252 104q-154 0 -236 -88q-84 -87 -102 -180q-17 -104 -17 -334q0 -229 17 -336q18 -93 102 -180q83 -86 236 -86q152 0 235 86q86 92 100 180q19 100 19 336q0 234 -19 334q-15 96 -83 164zM1038 139q-151 -151 -372 -151t-344 123 q-126 126 -146 239q-20 111 -20 379q0 217 12 346q12 131 143 262q133 133 355 133t344 -122t143 -240q23 -128 23 -379q0 -205 -13 -348q-12 -129 -125 -242zM766 1600h-135l-221 313h176z" />
<glyph unicode="&#xd3;" horiz-adv-x="1331" d="M918 1227q-101 104 -252 104q-154 0 -236 -88q-84 -87 -102 -180q-17 -104 -17 -334q0 -229 17 -336q18 -93 102 -180q83 -86 236 -86q152 0 235 86q86 92 100 180q19 100 19 336q0 234 -19 334q-15 96 -83 164zM1038 139q-151 -151 -372 -151t-344 123 q-126 126 -146 239q-20 111 -20 379q0 217 12 346q12 131 143 262q133 133 355 133t344 -122t143 -240q23 -128 23 -379q0 -205 -13 -348q-12 -129 -125 -242zM922 1913l-222 -314h-135l180 314h177z" />
<glyph unicode="&#xd4;" horiz-adv-x="1331" d="M918 1227q-101 104 -252 104q-154 0 -236 -88q-84 -87 -102 -180q-17 -104 -17 -334q0 -229 17 -336q18 -93 102 -180q83 -86 236 -86q152 0 235 86q86 92 100 180q19 100 19 336q0 234 -19 334q-15 96 -83 164zM1038 139q-151 -151 -372 -151t-344 123 q-126 126 -146 239q-20 111 -20 379q0 217 12 346q12 131 143 262q133 133 355 133t344 -122t143 -240q23 -128 23 -379q0 -205 -13 -348q-12 -129 -125 -242zM992 1600h-142l-184 213l-184 -213h-142l256 313h140z" />
<glyph unicode="&#xd5;" horiz-adv-x="1331" d="M918 1227q-101 104 -252 104q-154 0 -236 -88q-84 -87 -102 -180q-17 -104 -17 -334q0 -229 17 -336q18 -93 102 -180q83 -86 236 -86q152 0 235 86q86 92 100 180q19 100 19 336q0 234 -19 334q-15 96 -83 164zM1038 139q-151 -151 -372 -151t-344 123 q-126 126 -146 239q-20 111 -20 379q0 217 12 346q12 131 143 262q133 133 355 133t344 -122t143 -240q23 -128 23 -379q0 -205 -13 -348q-12 -129 -125 -242zM793 1628q-46 0 -74.5 10.5t-77.5 38.5q-45 27 -62.5 34t-46.5 7q-33 0 -55.5 -11.5t-64.5 -53.5l-76 73 q59 59 104 82t90 23q40 0 70 -10q25 -8 84 -45q59 -35 107 -35q29 0 55 13t65 52l76 -73q-105 -105 -194 -105z" />
<glyph unicode="&#xd6;" horiz-adv-x="1331" d="M918 1227q-101 104 -252 104q-154 0 -236 -88q-84 -87 -102 -180q-17 -104 -17 -334q0 -229 17 -336q18 -93 102 -180q83 -86 236 -86q152 0 235 86q86 92 100 180q19 100 19 336q0 234 -19 334q-15 96 -83 164zM1038 139q-151 -151 -372 -151t-344 123 q-126 126 -146 239q-20 111 -20 379q0 217 12 346q12 131 143 262q133 133 355 133t344 -122t143 -240q23 -128 23 -379q0 -205 -13 -348q-12 -129 -125 -242zM523 1616h-148v182h148v-182zM957 1616h-148v182h148v-182z" />
<glyph unicode="&#xd7;" d="M936 244l-92 -92l-309 309l-310 -309l-92 92l309 309l-309 309l92 92l310 -311l309 311l92 -92l-311 -309z" />
<glyph unicode="&#xd8;" horiz-adv-x="1335" d="M666 1331q-154 0 -236 -88q-84 -87 -102 -180q-17 -104 -17 -334q0 -364 72 -461l479 1004q-92 59 -196 59zM948 1190l-479 -1004q92 -59 197 -59q150 0 233 86q85 89 100 180q19 100 19 336q0 219 -12 307q-9 86 -58 154zM1038 139q-151 -151 -372 -151q-143 0 -258 65 l-68 -143h-133l102 213l-16 16q-96 96 -117 211q-20 111 -20 379q0 217 12 346q12 131 143 262q133 133 355 133q145 0 256 -63l69 141h133l-102 -213l16 -16q94 -94 115 -211q23 -128 23 -379q0 -205 -13 -348q-12 -129 -125 -242z" />
<glyph unicode="&#xd9;" horiz-adv-x="1396" d="M698 -12q-223 0 -366 137q-142 139 -142 356v977h156v-964q0 -166 96 -266.5t256 -100.5q159 0 257 101t98 266v964h155v-977q0 -219 -143 -356t-367 -137zM799 1599h-135l-222 314h176z" />
<glyph unicode="&#xda;" horiz-adv-x="1396" d="M698 -12q-223 0 -366 137q-142 139 -142 356v977h156v-964q0 -166 96 -266.5t256 -100.5q159 0 257 101t98 266v964h155v-977q0 -219 -143 -356t-367 -137zM954 1913l-221 -314h-135l180 314h176z" />
<glyph unicode="&#xdb;" horiz-adv-x="1396" d="M698 -12q-223 0 -366 137q-142 139 -142 356v977h156v-964q0 -166 96 -266.5t256 -100.5q159 0 257 101t98 266v964h155v-977q0 -219 -143 -356t-367 -137zM1024 1599h-141l-185 213l-184 -213h-141l256 314h139z" />
<glyph unicode="&#xdc;" horiz-adv-x="1396" d="M698 -12q-223 0 -366 137q-142 139 -142 356v977h156v-964q0 -166 96 -266.5t256 -100.5q159 0 257 101t98 266v964h155v-977q0 -219 -143 -356t-367 -137zM555 1616h-147v182h147v-182zM989 1616h-147v182h147v-182z" />
<glyph unicode="&#xdd;" horiz-adv-x="1085" d="M725 809q-74 74 -182 74q-106 0 -162 -56q-58 -58 -78 -122t-20 -205q0 -140 18 -205q24 -72 84.5 -124t157.5 -52q109 0 164 55t77 123q21 65 21 203q0 115 -17 189t-63 120zM829 100q-112 -112 -286 -112q-182 0 -269 90q-83 86 -111 181.5t-28 240.5q0 144 24.5 235.5 t84.5 151.5q62 63 123 91t139 28q72 0 102 -5q23 -4 51 -16l-118 203h-238v106h180l-96 168h154l96 -168h168v-106h-111l129 -227q80 -141 103 -232q26 -91 26 -229q0 -140 -27.5 -234.5t-95.5 -165.5z" />
<glyph unicode="&#xde;" horiz-adv-x="1314" d="M739 1024h-372v-578h372q144 0 227 75t83 214t-83 214t-227 75zM754 307h-387v-307h-156v1458h156v-293h387q200 0 325 -116t125 -314q0 -195 -125 -311q-126 -117 -325 -117z" />
<glyph unicode="&#xdf;" horiz-adv-x="1138" d="M911 74q-80 -74 -211 -74h-110v127h82q46 0 67 6q32 14 64 41q41 35 41 131v346q0 84 -42.5 127t-121.5 43h-90v123h74q80 0 130 50.5t50 135.5q0 97 -65 155t-191 58q-128 0 -191 -72t-63 -204v-1067h-150v1073q0 189 110 294.5t302 105.5q179 0 287 -87.5t108 -252.5 q0 -160 -129 -244q72 -38 100.5 -93t28.5 -153v-354q0 -141 -80 -215z" />
<glyph unicode="&#xe0;" horiz-adv-x="1077" d="M756 356v109h-283q-225 0 -225 -178q0 -172 231 -172q77 0 129 12q54 12 99 57q49 46 49 172zM903 0h-147v96q-60 -60 -125.5 -84t-165.5 -24q-111 0 -172 20q-64 21 -127 84q-62 65 -62 193q0 136 91.5 213t257.5 77h303v97q0 114 -61.5 167.5t-196.5 53.5 q-99 0 -153 -24.5t-101 -90.5l-101 92q65 85 145 117.5t212 32.5q403 0 403 -336v-684zM616 1217h-135l-221 313h176z" />
<glyph unicode="&#xe1;" horiz-adv-x="1077" d="M756 356v109h-283q-225 0 -225 -178q0 -172 231 -172q77 0 129 12q54 12 99 57q49 46 49 172zM903 0h-147v96q-60 -60 -125.5 -84t-165.5 -24q-111 0 -172 20q-64 21 -127 84q-62 65 -62 193q0 136 91.5 213t257.5 77h303v97q0 114 -61.5 167.5t-196.5 53.5 q-99 0 -153 -24.5t-101 -90.5l-101 92q65 85 145 117.5t212 32.5q403 0 403 -336v-684zM772 1530l-221 -313h-135l180 313h176z" />
<glyph unicode="&#xe2;" horiz-adv-x="1077" d="M756 356v109h-283q-225 0 -225 -178q0 -172 231 -172q77 0 129 12q54 12 99 57q49 46 49 172zM903 0h-147v96q-60 -60 -125.5 -84t-165.5 -24q-111 0 -172 20q-64 21 -127 84q-62 65 -62 193q0 136 91.5 213t257.5 77h303v97q0 114 -61.5 167.5t-196.5 53.5 q-99 0 -153 -24.5t-101 -90.5l-101 92q65 85 145 117.5t212 32.5q403 0 403 -336v-684zM842 1217h-142l-184 213l-184 -213h-142l256 313h140z" />
<glyph unicode="&#xe3;" horiz-adv-x="1077" d="M756 356v109h-283q-225 0 -225 -178q0 -172 231 -172q77 0 129 12q54 12 99 57q49 46 49 172zM903 0h-147v96q-60 -60 -125.5 -84t-165.5 -24q-111 0 -172 20q-64 21 -127 84q-62 65 -62 193q0 136 91.5 213t257.5 77h303v97q0 114 -61.5 167.5t-196.5 53.5 q-99 0 -153 -24.5t-101 -90.5l-101 92q65 85 145 117.5t212 32.5q403 0 403 -336v-684zM643 1245q-45 0 -73 10t-78 39q-45 27 -62.5 34t-46.5 7q-33 0 -56 -11.5t-65 -53.5l-76 73q59 59 104.5 82t90.5 23q40 0 70 -10q25 -8 84 -45q59 -35 106 -35q29 0 55.5 13t65.5 52 l76 -73q-105 -105 -195 -105z" />
<glyph unicode="&#xe4;" horiz-adv-x="1077" d="M756 356v109h-283q-225 0 -225 -178q0 -172 231 -172q77 0 129 12q54 12 99 57q49 46 49 172zM903 0h-147v96q-60 -60 -125.5 -84t-165.5 -24q-111 0 -172 20q-64 21 -127 84q-62 65 -62 193q0 136 91.5 213t257.5 77h303v97q0 114 -61.5 167.5t-196.5 53.5 q-99 0 -153 -24.5t-101 -90.5l-101 92q65 85 145 117.5t212 32.5q403 0 403 -336v-684zM373 1233h-148v182h148v-182zM807 1233h-148v182h148v-182z" />
<glyph unicode="&#xe5;" horiz-adv-x="1077" d="M756 356v109h-283q-225 0 -225 -178q0 -172 231 -172q77 0 129 12q54 12 99 57q49 46 49 172zM903 0h-147v96q-60 -60 -125.5 -84t-165.5 -24q-111 0 -172 20q-64 21 -127 84q-62 65 -62 193q0 136 91.5 213t257.5 77h303v97q0 114 -61.5 167.5t-196.5 53.5 q-99 0 -153 -24.5t-101 -90.5l-101 92q65 85 145 117.5t212 32.5q403 0 403 -336v-684zM516 1546q-61 0 -101 -39t-40 -100q0 -60 40.5 -100.5t100.5 -40.5t100.5 40.5t40.5 100.5q0 57 -40.5 98t-100.5 41zM516 1163q-98 0 -170 72t-72 172t70 170q72 72 172 72t170 -70 q72 -72 72 -172q0 -102 -70 -172q-72 -72 -172 -72z" />
<glyph unicode="&#xe6;" horiz-adv-x="1710" d="M756 356v109h-283q-225 0 -225 -178q0 -172 231 -172q77 0 129 12q54 12 99 57q49 46 49 172zM1405 743q-29 69 -93 110.5t-143 41.5q-77 0 -140 -40t-89 -99q-25 -57 -32 -90.5t-7 -90.5h535q0 61 -5.5 89.5t-25.5 78.5zM1583 465h-682q0 -167 77 -257.5t222 -90.5 q86 0 141 24t121 90l103 -88q-84 -84 -166.5 -119.5t-206.5 -35.5q-252 0 -358 174q-67 -94 -152.5 -134t-216.5 -40q-111 0 -172 20q-64 21 -127 84q-62 65 -62 193q0 136 91.5 213t257.5 77h303v97q0 114 -61.5 167.5t-196.5 53.5q-99 0 -153 -24.5t-101 -90.5l-101 92 q65 85 145 117.5t212 32.5q270 0 354 -158q109 158 315 158q194 0 304 -130t110 -358v-67z" />
<glyph unicode="&#xe7;" horiz-adv-x="1011" d="M575 -12q-194 0 -321 133q-125 134 -125 383q0 245 121.5 380.5t324.5 135.5q109 0 181 -32t151 -118l-100 -94q-57 63 -108.5 88t-123.5 25q-150 0 -224.5 -101t-74.5 -284q0 -96 15 -158q17 -68 71 -145q58 -82 213 -82q74 0 123 24t109 90l100 -96 q-77 -84 -151 -116.5t-181 -32.5zM641 -137l-121 -305h-162l146 305h137z" />
<glyph unicode="&#xe8;" horiz-adv-x="1085" d="M778 743q-29 69 -92.5 110.5t-142.5 41.5q-77 0 -140.5 -39.5t-89.5 -97.5q-22 -52 -29.5 -90.5t-7.5 -92.5h533q0 61 -5.5 89.5t-25.5 78.5zM956 465h-680q0 -166 77.5 -257t219.5 -91q86 0 143.5 25t121.5 89l100 -88q-84 -84 -165.5 -119.5t-203.5 -35.5 q-211 0 -325.5 130.5t-114.5 385.5q0 244 109.5 380t304.5 136q194 0 303.5 -130t109.5 -358v-67zM649 1217h-135l-221 313h176z" />
<glyph unicode="&#xe9;" horiz-adv-x="1085" d="M778 743q-29 69 -92.5 110.5t-142.5 41.5q-77 0 -140.5 -39.5t-89.5 -97.5q-22 -52 -29.5 -90.5t-7.5 -92.5h533q0 61 -5.5 89.5t-25.5 78.5zM956 465h-680q0 -166 77.5 -257t219.5 -91q86 0 143.5 25t121.5 89l100 -88q-84 -84 -165.5 -119.5t-203.5 -35.5 q-211 0 -325.5 130.5t-114.5 385.5q0 244 109.5 380t304.5 136q194 0 303.5 -130t109.5 -358v-67zM805 1530l-221 -313h-135l180 313h176z" />
<glyph unicode="&#xea;" horiz-adv-x="1085" d="M778 743q-29 69 -92.5 110.5t-142.5 41.5q-77 0 -140.5 -39.5t-89.5 -97.5q-22 -52 -29.5 -90.5t-7.5 -92.5h533q0 61 -5.5 89.5t-25.5 78.5zM956 465h-680q0 -166 77.5 -257t219.5 -91q86 0 143.5 25t121.5 89l100 -88q-84 -84 -165.5 -119.5t-203.5 -35.5 q-211 0 -325.5 130.5t-114.5 385.5q0 244 109.5 380t304.5 136q194 0 303.5 -130t109.5 -358v-67zM875 1217h-142l-184 213l-184 -213h-142l256 313h140z" />
<glyph unicode="&#xeb;" horiz-adv-x="1085" d="M778 743q-29 69 -92.5 110.5t-142.5 41.5q-77 0 -140.5 -39.5t-89.5 -97.5q-22 -52 -29.5 -90.5t-7.5 -92.5h533q0 61 -5.5 89.5t-25.5 78.5zM956 465h-680q0 -166 77.5 -257t219.5 -91q86 0 143.5 25t121.5 89l100 -88q-84 -84 -165.5 -119.5t-203.5 -35.5 q-211 0 -325.5 130.5t-114.5 385.5q0 244 109.5 380t304.5 136q194 0 303.5 -130t109.5 -358v-67zM406 1233h-148v182h148v-182zM840 1233h-148v182h148v-182z" />
<glyph unicode="&#xec;" horiz-adv-x="518" d="M332 0h-148v1008h148v-1008zM540 1217h-135l-221 313h176z" />
<glyph unicode="&#xed;" horiz-adv-x="518" d="M332 0h-148v1008h148v-1008zM541 1530l-222 -313h-135l181 313h176z" />
<glyph unicode="&#xee;" horiz-adv-x="518" d="M332 0h-148v1008h148v-1008zM836 1217h-142l-184 213l-184 -213h-142l256 313h140z" />
<glyph unicode="&#xef;" horiz-adv-x="518" d="M332 0h-148v1008h148v-1008zM332 1233h-148v182h148v-182zM766 1233h-148v182h148v-182z" />
<glyph unicode="&#xf1;" horiz-adv-x="1150" d="M977 0h-148v621q0 130 -64.5 199t-182.5 69t-184 -69.5t-66 -198.5v-621h-148v1008h148v-111q108 123 282 123q166 0 264.5 -99.5t98.5 -275.5v-645zM711 1245q-46 0 -74.5 10.5t-77.5 38.5q-45 27 -62 34t-46 7q-33 0 -56 -11.5t-65 -53.5l-76 73q59 59 104.5 82 t90.5 23q39 0 69 -10q25 -8 84 -45q59 -35 107 -35q29 0 55.5 13t65.5 52l76 -73q-105 -105 -195 -105z" />
<glyph unicode="&#xf2;" horiz-adv-x="1085" d="M727 815q-74 74 -184 74q-108 0 -170 -62q-57 -57 -75.5 -132.5t-18.5 -190.5q0 -116 14 -187q19 -82 84 -140t166 -58q111 0 172 61q57 57 74.5 129t17.5 195q0 116 -17 190.5t-63 120.5zM831 102q-114 -114 -288 -114t-297 123q-61 63 -85.5 154.5t-29.5 238.5 q-4 129 28 230t89.5 162.5t132.5 93t162 30.5q91 0 162 -29.5t135 -95.5q61 -61 87.5 -155.5t26.5 -235.5t-27 -236.5t-96 -165.5zM622 1217h-135l-221 313h176z" />
<glyph unicode="&#xf3;" horiz-adv-x="1085" d="M727 815q-74 74 -184 74q-108 0 -170 -62q-57 -57 -75.5 -132.5t-18.5 -190.5q0 -116 14 -187q19 -82 84 -140t166 -58q111 0 172 61q57 57 74.5 129t17.5 195q0 116 -17 190.5t-63 120.5zM831 102q-114 -114 -288 -114t-297 123q-61 63 -85.5 154.5t-29.5 238.5 q-4 129 28 230t89.5 162.5t132.5 93t162 30.5q91 0 162 -29.5t135 -95.5q61 -61 87.5 -155.5t26.5 -235.5t-27 -236.5t-96 -165.5zM799 1530l-221 -313h-136l181 313h176z" />
<glyph unicode="&#xf4;" horiz-adv-x="1085" d="M727 815q-74 74 -184 74q-108 0 -170 -62q-57 -57 -75.5 -132.5t-18.5 -190.5q0 -116 14 -187q19 -82 84 -140t166 -58q111 0 172 61q57 57 74.5 129t17.5 195q0 116 -17 190.5t-63 120.5zM831 102q-114 -114 -288 -114t-297 123q-61 63 -85.5 154.5t-29.5 238.5 q-4 129 28 230t89.5 162.5t132.5 93t162 30.5q91 0 162 -29.5t135 -95.5q61 -61 87.5 -155.5t26.5 -235.5t-27 -236.5t-96 -165.5zM869 1217h-142l-184 213l-184 -213h-142l256 313h140z" />
<glyph unicode="&#xf5;" horiz-adv-x="1085" d="M727 815q-74 74 -184 74q-108 0 -170 -62q-57 -57 -75.5 -132.5t-18.5 -190.5q0 -116 14 -187q19 -82 84 -140t166 -58q111 0 172 61q57 57 74.5 129t17.5 195q0 116 -17 190.5t-63 120.5zM831 102q-114 -114 -288 -114t-297 123q-61 63 -85.5 154.5t-29.5 238.5 q-4 129 28 230t89.5 162.5t132.5 93t162 30.5q91 0 162 -29.5t135 -95.5q61 -61 87.5 -155.5t26.5 -235.5t-27 -236.5t-96 -165.5zM670 1245q-46 0 -74.5 10.5t-77.5 38.5q-45 27 -62 34t-46 7q-33 0 -56 -11.5t-65 -53.5l-76 73q59 59 104.5 82t90.5 23q39 0 69 -10 q25 -8 84 -45q59 -35 107 -35q29 0 55 13t65 52l76 -73q-105 -105 -194 -105z" />
<glyph unicode="&#xf6;" horiz-adv-x="1085" d="M727 815q-74 74 -184 74q-108 0 -170 -62q-57 -57 -75.5 -132.5t-18.5 -190.5q0 -116 14 -187q19 -82 84 -140t166 -58q111 0 172 61q57 57 74.5 129t17.5 195q0 116 -17 190.5t-63 120.5zM831 102q-114 -114 -288 -114t-297 123q-61 63 -85.5 154.5t-29.5 238.5 q-4 129 28 230t89.5 162.5t132.5 93t162 30.5q91 0 162 -29.5t135 -95.5q61 -61 87.5 -155.5t26.5 -235.5t-27 -236.5t-96 -165.5zM400 1233h-148v182h148v-182zM834 1233h-148v182h148v-182z" />
<glyph unicode="&#xf7;" d="M623 100h-177v176h177v-176zM965 483h-861v138h861v-138zM623 827h-177v177h177v-177z" />
<glyph unicode="&#xf8;" horiz-adv-x="1085" d="M543 889q-108 0 -170 -62q-57 -57 -75.5 -132.5t-18.5 -190.5q0 -97 11 -161t40 -112l360 615q-61 43 -147 43zM758 776l-363 -612q62 -45 148 -45q111 0 172 61q57 57 74.5 129t17.5 195q0 106 -9.5 163.5t-39.5 108.5zM831 102q-114 -114 -288 -114q-116 0 -215 55 l-78 -133h-117l117 196q-65 68 -89.5 159.5t-29.5 238.5q-4 129 28 230t89.5 162.5t132.5 93t162 30.5q116 0 215 -55l80 133h114l-116 -197q66 -69 92 -162.5t26 -234.5t-27 -236.5t-96 -165.5z" />
<glyph unicode="&#xf9;" horiz-adv-x="1153" d="M967 0h-146v113q-107 -125 -284 -125q-168 0 -265.5 98.5t-97.5 278.5v643h148v-621q0 -130 63.5 -199t181.5 -69t185 70t67 198v621h148v-1008zM670 1217h-135l-222 313h176z" />
<glyph unicode="&#xfa;" horiz-adv-x="1153" d="M967 0h-146v113q-107 -125 -284 -125q-168 0 -265.5 98.5t-97.5 278.5v643h148v-621q0 -130 63.5 -199t181.5 -69t185 70t67 198v621h148v-1008zM825 1530l-221 -313h-135l180 313h176z" />
<glyph unicode="&#xfb;" horiz-adv-x="1153" d="M967 0h-146v113q-107 -125 -284 -125q-168 0 -265.5 98.5t-97.5 278.5v643h148v-621q0 -130 63.5 -199t181.5 -69t185 70t67 198v621h148v-1008zM895 1217h-141l-185 213l-184 -213h-141l256 313h139z" />
<glyph unicode="&#xfc;" horiz-adv-x="1153" d="M967 0h-146v113q-107 -125 -284 -125q-168 0 -265.5 98.5t-97.5 278.5v643h148v-621q0 -130 63.5 -199t181.5 -69t185 70t67 198v621h148v-1008zM426 1233h-147v182h147v-182zM860 1233h-147v182h147v-182z" />
<glyph unicode="&#xfd;" horiz-adv-x="913" d="M893 1008l-459 -1252q-38 -107 -105 -147.5t-163 -40.5h-64v131h45q74 0 106.5 25t59.5 100l72 196l-362 988h159l277 -809l274 809h160zM713 1530l-221 -313h-136l181 313h176z" />
<glyph unicode="&#xfe;" horiz-adv-x="1118" d="M586 889q-150 0 -203 -105q-51 -102 -51 -280q0 -194 55 -289.5t199 -95.5q146 0 198 104q54 108 54 281q0 181 -52 282q-53 103 -200 103zM862 76q-39 -39 -106.5 -63.5t-139.5 -24.5q-98 0 -161.5 28t-122.5 103v-570h-148v1909h148v-567q55 70 124 99.5t160 29.5 q158 0 238 -80q75 -75 103 -178.5t28 -257.5q0 -151 -27.5 -255.5t-95.5 -172.5z" />
<glyph unicode="&#xff;" horiz-adv-x="913" d="M893 1008l-459 -1252q-38 -107 -105 -147.5t-163 -40.5h-64v131h45q74 0 106.5 25t59.5 100l72 196l-362 988h159l277 -809l274 809h160zM313 1233h-147v182h147v-182zM748 1233h-148v182h148v-182z" />
<glyph unicode="&#x152;" horiz-adv-x="2025" d="M918 1227q-101 104 -252 104q-154 0 -236 -88q-84 -87 -102 -180q-17 -104 -17 -334q0 -229 17 -336q18 -93 102 -180q83 -86 236 -86q150 0 233 86q85 89 100 180q19 100 19 336q0 238 -17 338q-15 89 -83 160zM1911 0h-893v152q-66 -79 -158.5 -121.5t-195.5 -42.5 q-221 0 -342 121q-123 123 -144 239q-22 123 -22 381q0 222 12 348q12 129 143 260q133 133 353 133q222 0 354 -163v151h889v-137h-733l2 -520h622v-131h-622l-2 -533h737v-137z" />
<glyph unicode="&#x153;" horiz-adv-x="1763" d="M727 815q-74 74 -184 74q-108 0 -170 -62q-57 -57 -75.5 -132.5t-18.5 -190.5q0 -116 14 -187q19 -82 84 -140t166 -58q111 0 172 61q57 57 74.5 129t17.5 195q0 116 -17 190.5t-63 120.5zM1456 743q-28 69 -92 110.5t-143 41.5q-77 0 -140.5 -39.5t-89.5 -97.5 q-22 -52 -29.5 -90.5t-7.5 -92.5h535q0 66 -6 87q-3 22 -27 81zM1634 465h-680q0 -166 77.5 -257t219.5 -91q86 0 143.5 25t121.5 89l100 -88q-84 -84 -165.5 -119.5t-203.5 -35.5q-254 0 -362 194q-47 -92 -137 -143t-205 -51q-174 0 -297 123q-61 63 -85.5 154.5 t-29.5 238.5q-4 129 28 230t89.5 162.5t132.5 93t162 30.5q113 0 205 -51.5t139 -143.5q106 195 334 195q194 0 303.5 -130t109.5 -358v-67z" />
<glyph unicode="&#x178;" horiz-adv-x="1054" d="M1036 1458l-430 -856v-602h-155v602l-435 856h168l344 -698l340 698h168zM383 1616h-147v182h147v-182zM817 1616h-147v182h147v-182z" />
<glyph unicode="&#x2000;" horiz-adv-x="1008" />
<glyph unicode="&#x2001;" horiz-adv-x="2017" />
<glyph unicode="&#x2002;" horiz-adv-x="1008" />
<glyph unicode="&#x2003;" horiz-adv-x="2017" />
<glyph unicode="&#x2004;" horiz-adv-x="672" />
<glyph unicode="&#x2005;" horiz-adv-x="504" />
<glyph unicode="&#x2006;" horiz-adv-x="336" />
<glyph unicode="&#x2007;" horiz-adv-x="336" />
<glyph unicode="&#x2008;" horiz-adv-x="252" />
<glyph unicode="&#x2009;" horiz-adv-x="403" />
<glyph unicode="&#x200a;" horiz-adv-x="112" />
<glyph unicode="&#x2010;" horiz-adv-x="872" d="M717 483h-561v138h561v-138z" />
<glyph unicode="&#x2011;" horiz-adv-x="872" d="M717 483h-561v138h561v-138z" />
<glyph unicode="&#x2012;" horiz-adv-x="872" d="M717 483h-561v138h561v-138z" />
<glyph unicode="&#x2013;" d="M963 483h-857v138h857v-138z" />
<glyph unicode="&#x2014;" horiz-adv-x="1871" d="M1716 483h-1560v140h1560v-140z" />
<glyph unicode="&#x2018;" horiz-adv-x="538" d="M358 1286h-178v172l178 162v-334z" />
<glyph unicode="&#x2019;" horiz-adv-x="538" d="M358 1286l-178 -162v334h178v-172z" />
<glyph unicode="&#x201a;" horiz-adv-x="538" d="M358 0l-178 -162v334h178v-172z" />
<glyph unicode="&#x201c;" horiz-adv-x="888" d="M358 1286h-178v172l178 162v-334zM709 1286h-181v172l181 162v-334z" />
<glyph unicode="&#x201d;" horiz-adv-x="888" d="M358 1286l-178 -162v334h178v-172zM709 1286l-181 -162v334h181v-172z" />
<glyph unicode="&#x201e;" horiz-adv-x="888" d="M358 0l-178 -162v334h178v-172zM709 0l-181 -162v334h181v-172z" />
<glyph unicode="&#x2022;" horiz-adv-x="1089" d="M545 350q-142 0 -238 96t-96 238q0 140 96 236q98 98 238 98q137 0 235 -98q99 -99 99 -236q0 -139 -99 -238q-96 -96 -235 -96z" />
<glyph unicode="&#x2026;" horiz-adv-x="1550" d="M369 0h-189v188h189v-188zM868 0h-188v188h188v-188zM1370 0h-188v188h188v-188z" />
<glyph unicode="&#x202f;" horiz-adv-x="403" />
<glyph unicode="&#x2039;" horiz-adv-x="671" d="M512 119l-430 430l430 430v-184l-246 -246l246 -248v-182z" />
<glyph unicode="&#x203a;" horiz-adv-x="671" d="M590 549l-430 -430v182l248 248l-248 246v184z" />
<glyph unicode="&#x205f;" horiz-adv-x="504" />
<glyph unicode="&#x2122;" horiz-adv-x="1718" d="M678 1350h-244v-766h-119v766h-241v108h604v-108zM1599 584h-116v630l-209 -413h-115l-209 413v-630h-119v874h119l267 -530l266 530h116v-874z" />
<glyph unicode="&#xe000;" horiz-adv-x="1003" d="M0 1004h1004v-1004h-1004v1004z" />
</font>
</defs>
</svg>
